<?xml version="1.0" encoding="UTF-8" standalone="no"?>
<!-- Created with Inkscape (http://www.inkscape.org/) -->

<svg
   width="51.130924mm"
   height="17.250877mm"
   viewBox="0 0 51.130924 17.250877"
   version="1.1"
   id="svg1"
   inkscape:export-filename="logo.svg"
   inkscape:export-xdpi="96"
   inkscape:export-ydpi="96"
   xmlns:inkscape="http://www.inkscape.org/namespaces/inkscape"
   xmlns:sodipodi="http://sodipodi.sourceforge.net/DTD/sodipodi-0.dtd"
   xmlns="http://www.w3.org/2000/svg"
   xmlns:svg="http://www.w3.org/2000/svg">
  <sodipodi:namedview
     id="namedview1"
     pagecolor="#ffffff"
     bordercolor="#000000"
     borderopacity="0.25"
     inkscape:showpageshadow="2"
     inkscape:pageopacity="0.0"
     inkscape:pagecheckerboard="0"
     inkscape:deskcolor="#d1d1d1"
     inkscape:document-units="mm"
     inkscape:zoom="5.8860489"
     inkscape:cx="264.77864"
     inkscape:cy="382.42971"
     inkscape:window-width="2560"
     inkscape:window-height="1387"
     inkscape:window-x="3600"
     inkscape:window-y="25"
     inkscape:window-maximized="1"
     inkscape:current-layer="layer1">
    <inkscape:page
       x="0"
       y="0"
       width="51.130924"
       height="17.250877"
       id="page2"
       margin="0"
       bleed="0" />
  </sodipodi:namedview>
  <defs
     id="defs1" />
  <g
     inkscape:label="Layer 1"
     inkscape:groupmode="layer"
     id="layer1"
     transform="translate(-28.50683,-81.27211)">
    <g
       id="text1"
       style="font-size:19.7556px;stroke-width:0.264583"
       aria-label="RIA_">
      <path
         style="font-family:'BBH Sans Hegarty';-inkscape-font-specification:'BBH Sans Hegarty'"
         d="m 37.831475,92.592067 c 0,-0.921928 -0.460964,-1.382892 -1.382892,-1.382892 h -2.291649 v 3.891853 h -5.650102 v -13.82892 h 10.608757 c 1.448744,0 2.535302,0.32926 3.259674,0.98778 0.737543,0.64535 1.106314,1.508011 1.106314,2.587984 0,0.539987 -0.111948,1.053632 -0.335845,1.540937 -0.223897,0.474134 -0.599254,0.882416 -1.12607,1.224847 -0.513645,0.342431 -1.218262,0.579498 -2.113849,0.711202 v 0.395112 c 0.895587,0.131704 1.600204,0.322675 2.113849,0.572912 0.526816,0.250237 0.902173,0.592668 1.12607,1.027291 0.223897,0.434623 0.335845,1.000951 0.335845,1.698982 v 3.081873 h -5.650102 z m -3.674541,-5.373523 h 2.904073 c 0.250237,0 0.447793,-0.07902 0.592668,-0.237067 0.144874,-0.171215 0.217311,-0.381942 0.217311,-0.632179 0,-0.263408 -0.07244,-0.474135 -0.217311,-0.63218 -0.144875,-0.158045 -0.342431,-0.237067 -0.592668,-0.237067 h -2.904073 z m 10.490212,7.882484 v -13.82892 h 5.531568 v 13.82892 z m 6.144004,0 5.136456,-13.82892 h 7.112016 l 5.136456,13.82892 h -5.650102 l -0.651935,-2.15336 h -4.741344 l -0.691446,2.15336 z m 7.842973,-6.91446 -0.434623,1.363137 h 2.667006 l -0.414868,-1.363137 -0.711201,-2.983095 h -0.355601 z"
         id="path2"
         sodipodi:nodetypes="ssccccscscccccssccscscsssccccccccccccccccccccccc" />
      <path
         style="font-family:'BBH Sans Hegarty';-inkscape-font-specification:'BBH Sans Hegarty';fill:#217821"
         d="m 68.179507,98.522981 v -3.397963 h 11.458248 v 3.397963 z"
         id="path3" />
    </g>
  </g>
</svg>
